<svg width="144" height="48" viewBox="0 0 144 48" fill="none" xmlns="http://www.w3.org/2000/svg">
<path fill-rule="evenodd" clip-rule="evenodd" d="M10.8099 0.530273C5.28709 0.530273 0.809937 5.00743 0.809937 10.5303V37.5782C0.809937 43.1011 5.28709 47.5782 10.8099 47.5782H133.999C139.522 47.5782 143.999 43.1011 143.999 37.5782V10.5303C143.999 5.00742 139.522 0.530273 133.999 0.530273H10.8099Z" fill="url(#paint0_linear_254_1710)"/>
<path fill-rule="evenodd" clip-rule="evenodd" d="M14.4068 8.7124C13.1119 8.7124 12.0622 9.85958 12.0622 11.2802V37.8508C12.0622 39.269 13.1107 40.4186 14.4068 40.4186H26.082C27.3769 40.4186 28.4267 39.2715 28.4267 37.8508V11.2802C28.4267 9.86204 27.3781 8.7124 26.082 8.7124H14.4068ZM13.5963 12.8704V36.2603H26.8925V12.8704H13.5963ZM20.2444 39.3794C20.8093 39.3794 21.2672 38.914 21.2672 38.3399C21.2672 37.7658 20.8093 37.3004 20.2444 37.3004C19.6796 37.3004 19.2216 37.7658 19.2216 38.3399C19.2216 38.914 19.6796 39.3794 20.2444 39.3794ZM18.1989 10.7913C18.1989 11.0784 18.3746 11.3111 18.6061 11.3111H21.8828C22.1077 11.3111 22.29 11.07 22.29 10.7913C22.29 10.5043 22.1142 10.2715 21.8828 10.2715H18.6061C18.3812 10.2715 18.1989 10.5127 18.1989 10.7913Z" fill="#5D5D5D"/>
<path d="M40.0067 21.9482L39.3622 19.1943H37.329L36.6845 21.9482H35.6884L37.7567 13.3818H38.8876L40.997 21.9482H40.0067ZM39.1864 18.333L38.5302 15.4268C38.5028 15.2822 38.4755 15.1416 38.4482 15.0049C38.4247 14.8643 38.4013 14.7295 38.3778 14.6006C38.3583 14.4678 38.3388 14.3389 38.3192 14.2139C38.3075 14.3389 38.2919 14.4678 38.2724 14.6006C38.2528 14.7334 38.2294 14.8682 38.2021 15.0049C38.1747 15.1377 38.1454 15.2744 38.1142 15.415L37.4755 18.333H39.1864ZM42.8952 21.9482L41.2839 15.5146H42.2096L43.0944 19.4229C43.1491 19.6572 43.1979 19.8975 43.2409 20.1436C43.2878 20.3896 43.3307 20.6455 43.3698 20.9111H43.4167C43.4362 20.7588 43.4655 20.5752 43.5046 20.3604C43.5436 20.1455 43.5944 19.9072 43.6569 19.6455L44.6061 15.5146H45.5319L43.8971 21.9482H42.8952ZM48.3324 15.3975C48.9262 15.3975 49.35 15.5869 49.6039 15.9658C49.8578 16.3447 49.9848 16.8936 49.9848 17.6123V21.9482H49.2992L49.1645 21.0342H49.141C49.0395 21.2529 48.9184 21.4404 48.7778 21.5967C48.6371 21.749 48.477 21.8662 48.2973 21.9482C48.1176 22.0264 47.9106 22.0654 47.6762 22.0654C47.3442 22.0654 47.0727 21.9775 46.8617 21.8018C46.6508 21.626 46.4946 21.3955 46.393 21.1104C46.2914 20.8213 46.2407 20.5107 46.2407 20.1787C46.2407 19.542 46.4242 19.0479 46.7914 18.6963C47.1586 18.3447 47.6801 18.1533 48.3559 18.1221L49.0883 18.0752V17.6357C49.0883 17.1201 49.018 16.7432 48.8774 16.5049C48.7367 16.2666 48.5102 16.1475 48.1977 16.1475C48.018 16.1475 47.8285 16.1787 47.6293 16.2412C47.434 16.3037 47.2211 16.4033 46.9907 16.54L46.7035 15.8604C46.9457 15.7041 47.2035 15.5889 47.477 15.5146C47.7543 15.4365 48.0395 15.3975 48.3324 15.3975ZM49.1 18.7373L48.5024 18.7783C48.0492 18.8057 47.7114 18.9346 47.4887 19.165C47.2699 19.3916 47.1606 19.7217 47.1606 20.1553C47.1606 20.5576 47.2328 20.8545 47.3774 21.0459C47.5219 21.2373 47.7211 21.333 47.975 21.333C48.3305 21.333 48.6059 21.1611 48.8012 20.8174C49.0004 20.4736 49.1 19.999 49.1 19.3936V18.7373ZM52.6916 15.5146V21.9482H51.7951V15.5146H52.6916ZM52.258 13.1006C52.4416 13.1006 52.5744 13.1592 52.6564 13.2764C52.7424 13.3936 52.7853 13.5557 52.7853 13.7627C52.7853 13.9658 52.7404 14.126 52.6506 14.2432C52.5607 14.3604 52.4299 14.4189 52.258 14.4189C52.09 14.4189 51.9572 14.3604 51.8596 14.2432C51.7619 14.126 51.7131 13.9658 51.7131 13.7627C51.7131 13.5479 51.7599 13.3838 51.8537 13.2705C51.9474 13.1572 52.0822 13.1006 52.258 13.1006ZM55.4101 21.9482H54.5078V12.8311H55.4101V21.9482ZM58.9314 15.3975C59.5251 15.3975 59.9489 15.5869 60.2028 15.9658C60.4567 16.3447 60.5837 16.8936 60.5837 17.6123V21.9482H59.8982L59.7634 21.0342H59.7399C59.6384 21.2529 59.5173 21.4404 59.3767 21.5967C59.236 21.749 59.0759 21.8662 58.8962 21.9482C58.7165 22.0264 58.5095 22.0654 58.2751 22.0654C57.9431 22.0654 57.6716 21.9775 57.4607 21.8018C57.2497 21.626 57.0935 21.3955 56.9919 21.1104C56.8903 20.8213 56.8396 20.5107 56.8396 20.1787C56.8396 19.542 57.0232 19.0479 57.3903 18.6963C57.7575 18.3447 58.279 18.1533 58.9548 18.1221L59.6872 18.0752V17.6357C59.6872 17.1201 59.6169 16.7432 59.4763 16.5049C59.3357 16.2666 59.1091 16.1475 58.7966 16.1475C58.6169 16.1475 58.4274 16.1787 58.2282 16.2412C58.0329 16.3037 57.82 16.4033 57.5896 16.54L57.3024 15.8604C57.5446 15.7041 57.8024 15.5889 58.0759 15.5146C58.3532 15.4365 58.6384 15.3975 58.9314 15.3975ZM59.6989 18.7373L59.1013 18.7783C58.6482 18.8057 58.3103 18.9346 58.0876 19.165C57.8689 19.3916 57.7595 19.7217 57.7595 20.1553C57.7595 20.5576 57.8317 20.8545 57.9763 21.0459C58.1208 21.2373 58.32 21.333 58.5739 21.333C58.9294 21.333 59.2048 21.1611 59.4001 20.8174C59.5993 20.4736 59.6989 19.999 59.6989 19.3936V18.7373ZM63.2846 12.8311V15.5146C63.2846 15.6396 63.2807 15.7803 63.2729 15.9365C63.269 16.0889 63.2632 16.251 63.2553 16.4229H63.2964C63.4565 16.0869 63.6557 15.835 63.894 15.667C64.1362 15.4951 64.4116 15.4092 64.7202 15.4092C65.3335 15.4092 65.7983 15.6904 66.1147 16.2529C66.435 16.8115 66.5952 17.6338 66.5952 18.7197C66.5952 19.4385 66.5229 20.0479 66.3784 20.5479C66.2378 21.0439 66.0288 21.4209 65.7514 21.6787C65.478 21.9365 65.1421 22.0654 64.7436 22.0654C64.4272 22.0654 64.1499 21.9873 63.9116 21.8311C63.6733 21.6709 63.4682 21.4248 63.2964 21.0928H63.2436L63.1147 21.9482H62.3823V12.8311H63.2846ZM64.5268 16.2002C64.1987 16.2002 63.9448 16.3057 63.7651 16.5166C63.5854 16.7236 63.4604 17.0088 63.3901 17.3721C63.3198 17.7354 63.2846 18.1494 63.2846 18.6143V18.8896C63.2846 19.7021 63.3882 20.3057 63.5952 20.7002C63.8061 21.0908 64.1186 21.2861 64.5327 21.2861C64.9155 21.2861 65.2007 21.0771 65.3882 20.6592C65.5757 20.2412 65.6694 19.5908 65.6694 18.708C65.6694 17.8799 65.5776 17.2549 65.394 16.833C65.2143 16.4111 64.9253 16.2002 64.5268 16.2002ZM69.0207 21.9482H68.1184V12.8311H69.0207V21.9482ZM72.5889 15.4092C73.0264 15.4092 73.3857 15.5361 73.667 15.79C73.9521 16.0439 74.1631 16.3857 74.2998 16.8154C74.4404 17.2451 74.5107 17.7236 74.5107 18.251V18.8896H71.4463C71.4541 19.6904 71.5771 20.292 71.8154 20.6943C72.0576 21.0967 72.4209 21.2979 72.9053 21.2979C73.1357 21.2979 73.3623 21.2627 73.5849 21.1924C73.8076 21.1221 74.0381 21.0088 74.2764 20.8525V21.6611C74.0537 21.7979 73.8213 21.8994 73.5791 21.9658C73.3369 22.0322 73.0791 22.0654 72.8056 22.0654C72.2705 22.0654 71.8369 21.9229 71.5049 21.6377C71.1728 21.3486 70.9306 20.9561 70.7783 20.46C70.6299 19.96 70.5556 19.3955 70.5556 18.7666C70.5556 18.0479 70.6318 17.4385 70.7842 16.9385C70.9365 16.4385 71.1631 16.0596 71.4639 15.8018C71.7685 15.54 72.1435 15.4092 72.5889 15.4092ZM72.5889 16.1475C72.249 16.1475 71.9834 16.3135 71.792 16.6455C71.6006 16.9736 71.4892 17.4814 71.458 18.1689H73.667C73.667 17.8057 73.6279 17.4717 73.5498 17.167C73.4756 16.8584 73.3584 16.6123 73.1982 16.4287C73.042 16.2412 72.8389 16.1475 72.5889 16.1475ZM82.4849 18.7256C82.4849 19.2334 82.4419 19.6924 82.356 20.1025C82.27 20.5127 82.1392 20.8643 81.9634 21.1572C81.7876 21.4502 81.5649 21.6748 81.2954 21.8311C81.0259 21.9873 80.7075 22.0654 80.3403 22.0654C79.9888 22.0654 79.6802 21.9873 79.4146 21.8311C79.1489 21.6748 78.9282 21.4521 78.7524 21.1631C78.5767 20.8701 78.4439 20.5186 78.354 20.1084C78.2642 19.6943 78.2192 19.2334 78.2192 18.7256C78.2192 18.0146 78.2954 17.4131 78.4478 16.9209C78.6001 16.4248 78.8345 16.0479 79.1509 15.79C79.4673 15.5283 79.8696 15.3975 80.3579 15.3975C80.8149 15.3975 81.2017 15.5244 81.5181 15.7783C81.8345 16.0283 82.0747 16.4014 82.2388 16.8975C82.4028 17.3896 82.4849 17.999 82.4849 18.7256ZM79.1392 18.7256C79.1392 19.2842 79.1821 19.7529 79.2681 20.1318C79.354 20.5107 79.4868 20.7959 79.6665 20.9873C79.8501 21.1787 80.0825 21.2744 80.3638 21.2744C80.6411 21.2744 80.8677 21.1807 81.0435 20.9932C81.2232 20.8057 81.356 20.5244 81.4419 20.1494C81.5278 19.7705 81.5708 19.2959 81.5708 18.7256C81.5708 18.167 81.5278 17.7002 81.4419 17.3252C81.356 16.9463 81.2232 16.6631 81.0435 16.4756C80.8677 16.2842 80.6392 16.1885 80.3579 16.1885C79.9282 16.1885 79.6177 16.4014 79.4263 16.8271C79.2349 17.249 79.1392 17.8818 79.1392 18.7256ZM86.3342 15.3975C86.8421 15.3975 87.2268 15.5752 87.4885 15.9307C87.7503 16.2861 87.8811 16.8311 87.8811 17.5654V21.9482H86.9788V17.7471C86.9788 17.2275 86.9104 16.8389 86.7737 16.5811C86.6409 16.3232 86.4299 16.1943 86.1409 16.1943C85.719 16.1943 85.4104 16.3818 85.2151 16.7568C85.0198 17.1318 84.9221 17.7334 84.9221 18.5615V21.9482H84.0198V15.5146H84.7405L84.8401 16.4463H84.8987C84.9885 16.2314 85.1038 16.0459 85.2444 15.8896C85.385 15.7334 85.5471 15.6123 85.7307 15.5264C85.9143 15.4404 86.1155 15.3975 86.3342 15.3975ZM93.6521 21.2686C93.7498 21.2686 93.8474 21.2588 93.9451 21.2393C94.0428 21.2158 94.1365 21.1846 94.2264 21.1455V21.8838C94.1053 21.9385 93.9744 21.9814 93.8338 22.0127C93.6931 22.0479 93.5369 22.0654 93.365 22.0654C93.0877 22.0654 92.8592 22.0029 92.6795 21.8779C92.5037 21.7529 92.3728 21.5674 92.2869 21.3213C92.2049 21.0713 92.1639 20.7588 92.1639 20.3838V16.2705H91.5662V15.7783L92.2049 15.5381L92.4451 14.0557H93.0662V15.5146H94.156V16.2705H93.0662V20.2783C93.0662 20.6104 93.1053 20.8584 93.1834 21.0225C93.2654 21.1865 93.4217 21.2686 93.6521 21.2686ZM96.3296 12.8311V15.4795C96.3296 15.6514 96.3238 15.8174 96.3121 15.9775C96.3042 16.1338 96.2886 16.2822 96.2652 16.4229H96.3296C96.4078 16.2119 96.5152 16.0303 96.6519 15.8779C96.7925 15.7256 96.9546 15.6084 97.1382 15.5264C97.3218 15.4404 97.5191 15.3975 97.73 15.3975C98.0894 15.3975 98.3843 15.4814 98.6148 15.6494C98.8453 15.8135 99.0152 16.0576 99.1246 16.3818C99.2339 16.7021 99.2886 17.1006 99.2886 17.5771V21.9482H98.3863V17.7529C98.3863 17.1982 98.3199 16.8018 98.1871 16.5635C98.0542 16.3252 97.8394 16.2061 97.5425 16.2061C97.2691 16.2061 97.0425 16.29 96.8628 16.458C96.6832 16.626 96.5484 16.8857 96.4585 17.2373C96.3726 17.585 96.3296 18.0322 96.3296 18.5791V21.9482H95.4273V12.8311H96.3296ZM102.851 15.4092C103.288 15.4092 103.648 15.5361 103.929 15.79C104.214 16.0439 104.425 16.3857 104.562 16.8154C104.702 17.2451 104.773 17.7236 104.773 18.251V18.8896H101.708C101.716 19.6904 101.839 20.292 102.077 20.6943C102.32 21.0967 102.683 21.2979 103.167 21.2979C103.398 21.2979 103.624 21.2627 103.847 21.1924C104.07 21.1221 104.3 21.0088 104.538 20.8525V21.6611C104.316 21.7979 104.083 21.8994 103.841 21.9658C103.599 22.0322 103.341 22.0654 103.068 22.0654C102.533 22.0654 102.099 21.9229 101.767 21.6377C101.435 21.3486 101.193 20.9561 101.04 20.46C100.892 19.96 100.818 19.3955 100.818 18.7666C100.818 18.0479 100.894 17.4385 101.046 16.9385C101.199 16.4385 101.425 16.0596 101.726 15.8018C102.031 15.54 102.406 15.4092 102.851 15.4092ZM102.851 16.1475C102.511 16.1475 102.245 16.3135 102.054 16.6455C101.863 16.9736 101.751 17.4814 101.72 18.1689H103.929C103.929 17.8057 103.89 17.4717 103.812 17.167C103.738 16.8584 103.62 16.6123 103.46 16.4287C103.304 16.2412 103.101 16.1475 102.851 16.1475Z" fill="#606060"/>
<path d="M44.0531 41.1331L43.2313 38.4353H39.0994L38.2776 41.1331H35.6884L39.6885 29.7528H42.6266L46.6423 41.1331H44.0531ZM42.6577 36.4197L41.8359 33.7839C41.7842 33.6082 41.7145 33.3834 41.6266 33.1095C41.5439 32.8304 41.4586 32.5487 41.3708 32.2645C41.2881 31.9751 41.2209 31.7244 41.1692 31.5125C41.1175 31.7244 41.0452 31.988 40.9522 32.3033C40.8643 32.6133 40.779 32.9079 40.6963 33.187C40.6136 33.4661 40.5542 33.6651 40.518 33.7839L39.704 36.4197H42.6577ZM52.1502 32.3033C53.1269 32.3033 53.9151 32.6831 54.5146 33.4428C55.1193 34.2026 55.4216 35.3163 55.4216 36.784C55.4216 37.766 55.2795 38.5929 54.9952 39.2648C54.711 39.9315 54.3182 40.4354 53.8169 40.7765C53.3156 41.1176 52.7393 41.2881 52.0881 41.2881C51.6695 41.2881 51.3103 41.2364 51.0106 41.1331C50.7108 41.0245 50.455 40.8876 50.2431 40.7222C50.0312 40.5516 49.8477 40.3708 49.6927 40.1795H49.5687C49.61 40.3863 49.641 40.5982 49.6617 40.8152C49.6824 41.0323 49.6927 41.2442 49.6927 41.4509V44.9472H47.3283V32.466H49.2508L49.5842 33.5901H49.6927C49.8477 33.3576 50.0364 33.1431 50.2586 32.9467C50.4808 32.7503 50.747 32.5953 51.0571 32.4816C51.3724 32.3627 51.7367 32.3033 52.1502 32.3033ZM51.3904 34.1948C50.977 34.1948 50.6488 34.2801 50.4059 34.4506C50.163 34.6212 49.9847 34.877 49.871 35.2181C49.7625 35.5592 49.703 35.9907 49.6927 36.5127V36.7685C49.6927 37.3267 49.7444 37.7996 49.8477 38.1872C49.9563 38.5748 50.1346 38.8694 50.3827 39.071C50.6359 39.2725 50.9822 39.3733 51.4215 39.3733C51.7832 39.3733 52.0804 39.2725 52.313 39.071C52.5455 38.8694 52.7187 38.5748 52.8324 38.1872C52.9512 37.7944 53.0107 37.3164 53.0107 36.753C53.0107 35.9055 52.8789 35.2672 52.6153 34.8382C52.3517 34.4093 51.9434 34.1948 51.3904 34.1948ZM61.6349 32.3033C62.6117 32.3033 63.3999 32.6831 63.9994 33.4428C64.604 34.2026 64.9064 35.3163 64.9064 36.784C64.9064 37.766 64.7642 38.5929 64.48 39.2648C64.1957 39.9315 63.803 40.4354 63.3017 40.7765C62.8003 41.1176 62.2241 41.2881 61.5729 41.2881C61.1543 41.2881 60.7951 41.2364 60.4953 41.1331C60.1956 41.0245 59.9398 40.8876 59.7279 40.7222C59.516 40.5516 59.3325 40.3708 59.1775 40.1795H59.0534C59.0948 40.3863 59.1258 40.5982 59.1465 40.8152C59.1671 41.0323 59.1775 41.2442 59.1775 41.4509V44.9472H56.813V32.466H58.7356L59.0689 33.5901H59.1775C59.3325 33.3576 59.5211 33.1431 59.7434 32.9467C59.9656 32.7503 60.2318 32.5953 60.5419 32.4816C60.8571 32.3627 61.2215 32.3033 61.6349 32.3033ZM60.8752 34.1948C60.4618 34.1948 60.1336 34.2801 59.8907 34.4506C59.6478 34.6212 59.4695 34.877 59.3558 35.2181C59.2472 35.5592 59.1878 35.9907 59.1775 36.5127V36.7685C59.1775 37.3267 59.2291 37.7996 59.3325 38.1872C59.441 38.5748 59.6193 38.8694 59.8674 39.071C60.1207 39.2725 60.4669 39.3733 60.9062 39.3733C61.268 39.3733 61.5652 39.2725 61.7977 39.071C62.0303 38.8694 62.2034 38.5748 62.3171 38.1872C62.436 37.7944 62.4954 37.3164 62.4954 36.753C62.4954 35.9055 62.3636 35.2672 62.1001 34.8382C61.8365 34.4093 61.4282 34.1948 60.8752 34.1948ZM76.7361 37.9856C76.7361 38.6575 76.5733 39.2415 76.2477 39.7377C75.9221 40.2338 75.4466 40.6162 74.8213 40.885C74.2011 41.1537 73.4465 41.2881 72.5576 41.2881C72.1648 41.2881 71.7798 41.2623 71.4025 41.2106C71.0304 41.1589 70.6712 41.084 70.325 40.9858C69.9839 40.8824 69.6583 40.7558 69.3482 40.6059V38.3733C69.8857 38.611 70.4438 38.8255 71.0227 39.0167C71.6015 39.2079 72.1752 39.3035 72.7437 39.3035C73.1365 39.3035 73.4517 39.2518 73.6894 39.1485C73.9323 39.0451 74.1081 38.903 74.2166 38.7221C74.3251 38.5412 74.3794 38.3345 74.3794 38.1019C74.3794 37.8177 74.2838 37.5748 74.0926 37.3732C73.9013 37.1717 73.6378 36.983 73.3018 36.8073C72.9711 36.6316 72.5964 36.4429 72.1778 36.2414C71.9142 36.1174 71.6273 35.9675 71.3173 35.7918C71.0072 35.6109 70.7126 35.3912 70.4335 35.1328C70.1544 34.8744 69.9244 34.5617 69.7436 34.1948C69.5678 33.8227 69.48 33.3782 69.48 32.8614C69.48 32.1844 69.635 31.6055 69.9451 31.1249C70.2552 30.6443 70.6971 30.2773 71.2707 30.0241C71.8496 29.7657 72.5318 29.6365 73.3173 29.6365C73.9065 29.6365 74.4673 29.7062 74.9996 29.8458C75.5371 29.9802 76.0978 30.1766 76.6818 30.435L75.9066 32.3033C75.3846 32.0914 74.9169 31.9286 74.5034 31.8149C74.09 31.696 73.6688 31.6366 73.2398 31.6366C72.9401 31.6366 72.6842 31.6857 72.4723 31.7838C72.2604 31.8769 72.1002 32.0112 71.9917 32.187C71.8832 32.3575 71.8289 32.5565 71.8289 32.7839C71.8289 33.0526 71.9064 33.28 72.0615 33.4661C72.2217 33.647 72.4594 33.8227 72.7747 33.9932C73.0951 34.1638 73.4931 34.3628 73.9685 34.5902C74.5474 34.8641 75.0409 35.1509 75.4492 35.4507C75.8627 35.7452 76.1805 36.0941 76.4027 36.4972C76.625 36.8952 76.7361 37.3913 76.7361 37.9856ZM81.6935 39.4043C81.9519 39.4043 82.2026 39.3785 82.4455 39.3268C82.6936 39.2751 82.9391 39.2105 83.182 39.133V40.8927C82.9287 41.0064 82.6135 41.0995 82.2362 41.1718C81.8641 41.2493 81.4558 41.2881 81.0113 41.2881C80.4945 41.2881 80.0294 41.2054 79.6159 41.04C79.2076 40.8695 78.8846 40.5775 78.6469 40.164C78.4143 39.7454 78.298 39.164 78.298 38.4198V34.2413H77.1662V33.2413L78.4686 32.4505L79.1508 30.621H80.6625V32.466H83.0889V34.2413H80.6625V38.4198C80.6625 38.7505 80.7555 38.9986 80.9416 39.164C81.1328 39.3242 81.3834 39.4043 81.6935 39.4043ZM92.2558 36.784C92.2558 37.5076 92.1577 38.1484 91.9613 38.7066C91.77 39.2648 91.4884 39.7377 91.1163 40.1253C90.7493 40.5077 90.3049 40.7971 89.7829 40.9935C89.2661 41.1899 88.6821 41.2881 88.0309 41.2881C87.421 41.2881 86.8603 41.1899 86.3486 40.9935C85.8422 40.7971 85.4003 40.5077 85.023 40.1253C84.6509 39.7377 84.3615 39.2648 84.1548 38.7066C83.9532 38.1484 83.8524 37.5076 83.8524 36.784C83.8524 35.8228 84.023 35.0088 84.3641 34.3421C84.7052 33.6754 85.191 33.1689 85.8215 32.8227C86.452 32.4764 87.204 32.3033 88.0774 32.3033C88.8888 32.3033 89.6072 32.4764 90.2325 32.8227C90.863 33.1689 91.3566 33.6754 91.7132 34.3421C92.075 35.0088 92.2558 35.8228 92.2558 36.784ZM86.2634 36.784C86.2634 37.3525 86.3254 37.8306 86.4494 38.2182C86.5735 38.6058 86.7673 38.8978 87.0308 39.0942C87.2944 39.2906 87.6381 39.3888 88.0619 39.3888C88.4805 39.3888 88.819 39.2906 89.0774 39.0942C89.341 38.8978 89.5322 38.6058 89.6511 38.2182C89.7751 37.8306 89.8371 37.3525 89.8371 36.784C89.8371 36.2104 89.7751 35.7349 89.6511 35.3576C89.5322 34.9752 89.341 34.6884 89.0774 34.4971C88.8139 34.3059 88.4702 34.2103 88.0464 34.2103C87.421 34.2103 86.9662 34.4248 86.682 34.8537C86.4029 35.2827 86.2634 35.9261 86.2634 36.784ZM98.4847 32.3033C98.6035 32.3033 98.7405 32.311 98.8955 32.3265C99.0557 32.3368 99.185 32.3523 99.2831 32.373L99.1048 34.5902C99.0273 34.5643 98.9162 34.5462 98.7715 34.5359C98.632 34.5204 98.5105 34.5126 98.4071 34.5126C98.1022 34.5126 97.8051 34.5514 97.5156 34.6289C97.2314 34.7064 96.9756 34.8331 96.7482 35.0088C96.5208 35.1793 96.3399 35.4067 96.2055 35.691C96.0763 35.9701 96.0117 36.3137 96.0117 36.722V41.1331H93.6473V32.466H95.438L95.7869 33.9235H95.9032C96.0737 33.6289 96.2856 33.3601 96.5389 33.1172C96.7973 32.8692 97.0893 32.6728 97.4149 32.5281C97.7456 32.3782 98.1022 32.3033 98.4847 32.3033ZM103.868 32.3033C104.67 32.3033 105.36 32.4583 105.938 32.7684C106.517 33.0733 106.964 33.5178 107.279 34.1018C107.595 34.6858 107.752 35.399 107.752 36.2414V37.3887H102.163C102.189 38.0554 102.388 38.58 102.76 38.9624C103.137 39.3397 103.659 39.5283 104.326 39.5283C104.879 39.5283 105.385 39.4715 105.845 39.3578C106.305 39.2441 106.778 39.0735 107.264 38.8461V40.6757C106.835 40.8876 106.385 41.0426 105.915 41.1408C105.45 41.239 104.884 41.2881 104.217 41.2881C103.349 41.2881 102.579 41.1279 101.907 40.8075C101.24 40.487 100.716 39.9986 100.333 39.3423C99.9562 38.6859 99.7676 37.859 99.7676 36.8616C99.7676 35.8486 99.9381 35.0062 100.279 34.3343C100.625 33.6573 101.106 33.1508 101.721 32.8149C102.336 32.4738 103.052 32.3033 103.868 32.3033ZM103.884 33.9855C103.424 33.9855 103.042 34.1328 102.737 34.4274C102.437 34.722 102.264 35.1845 102.217 35.815H105.535C105.53 35.4636 105.465 35.1509 105.341 34.877C105.223 34.6031 105.042 34.386 104.799 34.2258C104.561 34.0656 104.256 33.9855 103.884 33.9855Z" fill="#606060"/>
<defs>
<linearGradient id="paint0_linear_254_1710" x1="0.809937" y1="0.530273" x2="0.809937" y2="47.5782" gradientUnits="userSpaceOnUse">
<stop stop-color="#F4F4F4"/>
<stop offset="1" stop-color="#E6E6E6"/>
</linearGradient>
</defs>
</svg>
