<svg width="144" height="48" viewBox="0 0 144 48" fill="none" xmlns="http://www.w3.org/2000/svg">
<path fill-rule="evenodd" clip-rule="evenodd" d="M10.341 0.530273C4.81816 0.530273 0.341003 5.00743 0.341003 10.5303V37.5782C0.341003 43.1011 4.81816 47.5782 10.341 47.5782H133.53C139.053 47.5782 143.53 43.1011 143.53 37.5782V10.5303C143.53 5.00742 139.053 0.530273 133.53 0.530273H10.341Z" fill="url(#paint0_linear_254_1719)"/>
<path fill-rule="evenodd" clip-rule="evenodd" d="M99.357 33.9084L98.3096 34.8929C98.0682 35.0255 97.8275 35.1794 97.5874 35.2887C96.86 35.618 96.1202 35.7008 95.4628 35.7008C94.7633 35.7008 93.6666 35.6562 92.5485 34.8495C90.9944 33.7577 90.3149 31.8825 90.3149 30.2479C90.3149 26.8636 93.0787 25.2039 95.3324 25.2039C96.1208 25.2039 96.93 25.4005 97.588 25.8151C98.6821 26.5357 98.9651 27.473 99.1221 27.9756L93.9736 30.0487L92.2877 30.1794C92.8334 32.9537 94.7166 34.5675 96.7977 34.5675C97.8372 34.5675 98.6088 34.2299 99.3168 33.8806C99.3161 33.8812 99.4582 33.8075 99.357 33.9084ZM96.2532 28.3885C96.6718 28.2371 96.8885 28.1058 96.8885 27.8024C96.8885 26.9305 95.8989 25.924 94.7179 25.924C93.8425 25.924 92.2007 26.6032 92.2007 28.9609C92.2007 29.329 92.2442 29.721 92.2669 30.1129L96.2532 28.3885Z" fill="#575757"/>
<path fill-rule="evenodd" clip-rule="evenodd" d="M88.5979 33.7389C88.5979 34.5876 88.7497 34.7195 89.4694 34.7855C89.8445 34.8295 90.2183 34.8495 90.5888 34.8929L89.7789 35.3735H85.9198C86.426 34.7189 86.5129 34.6542 86.5129 34.2176V33.7305L86.5045 20.7529H84.8004L86.4402 19.9651H89.5719C88.8932 20.3564 88.6907 20.5958 88.6031 21.359L88.5979 33.7389Z" fill="#575757"/>
<path fill-rule="evenodd" clip-rule="evenodd" d="M82.6106 26.2754C83.1129 26.6874 84.1628 27.5613 84.1628 29.2205C84.1628 30.8369 83.2485 31.5989 82.3264 32.3201C82.0434 32.6041 81.7131 32.912 81.7131 33.388C81.7131 33.8706 82.0441 34.1326 82.2822 34.3279L83.0733 34.9366C84.035 35.7458 84.9117 36.4877 84.9117 37.9948C84.9117 40.0486 82.9182 42.1184 79.1512 42.1184C75.978 42.1184 74.4439 40.6126 74.4439 38.9974C74.4439 38.2109 74.8359 37.0977 76.1318 36.3357C77.4893 35.5084 79.329 35.3978 80.3134 35.3331C80.0058 34.9372 79.6548 34.5226 79.6548 33.846C79.6548 33.476 79.7664 33.2554 79.8741 32.9954C79.6347 33.0181 79.3933 33.0413 79.1739 33.0413C76.8514 33.0413 75.538 31.3143 75.538 29.6118C75.538 28.6079 75.9975 27.4947 76.941 26.6868C78.1895 25.6622 79.6781 25.4856 80.8611 25.4856H85.3737L83.9707 26.2754H82.6106ZM81.0568 35.9654C80.8777 35.9421 80.77 35.9421 80.5532 35.9421C80.3547 35.9421 79.1717 35.9848 78.2554 36.2914C77.7707 36.468 76.3696 36.99 76.3696 38.5411C76.3696 40.0884 77.8823 41.2035 80.2229 41.2035C82.3248 41.2035 83.4416 40.199 83.4416 38.8465C83.4409 37.7332 82.7187 37.1459 81.0568 35.9654ZM81.6862 31.8178C82.1924 31.3145 82.2365 30.6185 82.2365 30.2227C82.2365 28.6528 81.2975 26.2077 79.4773 26.2077C78.9095 26.2077 78.2943 26.4923 77.9452 26.9309C77.5753 27.3856 77.4643 27.9756 77.4643 28.5428C77.4643 30.0047 78.319 32.429 80.2008 32.429C80.7492 32.429 81.3397 32.1632 81.6862 31.8178Z" fill="#575757"/>
<path fill-rule="evenodd" clip-rule="evenodd" d="M69.0346 35.6561C65.5538 35.6561 63.6914 32.9537 63.6914 30.5079C63.6914 27.6496 66.0327 25.2039 69.3629 25.2039C72.5822 25.2039 74.5984 27.7162 74.5984 30.354C74.5984 32.9297 72.6056 35.6561 69.0346 35.6561ZM71.7752 33.8902C72.3048 33.1916 72.4332 32.3197 72.4332 31.4698C72.4332 29.5473 71.5144 25.8811 68.7986 25.8811C68.0764 25.8811 67.3489 26.1624 66.8246 26.6223C65.9693 27.3862 65.8168 28.3455 65.8168 29.2873C65.8168 31.4439 66.8856 35.0009 69.5397 35.0009C70.3969 35.0009 71.271 34.5875 71.7752 33.8902Z" fill="#575757"/>
<path fill-rule="evenodd" clip-rule="evenodd" d="M57.3807 35.6561C53.8992 35.6561 52.0394 32.9537 52.0394 30.5079C52.0394 27.6496 54.3814 25.2039 57.7103 25.2039C60.9277 25.2039 62.9419 27.7162 62.9419 30.354C62.9426 32.9297 60.9524 35.6561 57.3807 35.6561ZM60.1215 33.8903C60.6471 33.1917 60.7782 32.3198 60.7782 31.4698C60.7782 29.5474 59.8567 25.8811 57.1436 25.8811C56.4187 25.8811 55.6991 26.1625 55.1735 26.6224C54.3169 27.3863 54.165 28.3456 54.165 29.2874C54.165 31.444 55.2384 35.0009 57.8879 35.0009C58.7432 35.0009 59.616 34.5876 60.1215 33.8903Z" fill="#575757"/>
<path fill-rule="evenodd" clip-rule="evenodd" d="M50.6504 34.8988L47.7147 35.5683C46.5253 35.7552 45.4571 35.9202 44.3261 35.9202C38.6629 35.9202 36.5059 31.7649 36.5059 28.5139C36.5059 24.5423 39.563 20.8611 44.7978 20.8611C45.9055 20.8611 46.9717 21.0234 47.9425 21.2867C49.4811 21.7181 50.2001 22.2486 50.6504 22.5603L48.9451 24.1748L48.2261 24.3353L48.7387 23.5202C48.0444 22.8443 46.768 21.5965 44.3455 21.5965C41.1068 21.5965 38.6629 24.0507 38.6629 27.6335C38.6629 31.4816 41.4533 35.1013 45.9269 35.1013C47.2417 35.1013 47.9185 34.838 48.533 34.5922V31.2933L45.4338 31.4596L47.0768 30.5799H51.4265L50.8951 31.0902C50.751 31.2118 50.7322 31.2532 50.692 31.4162C50.6706 31.6025 50.6511 32.195 50.6511 32.4033V34.8988H50.6504Z" fill="#575757"/>
<path fill-rule="evenodd" clip-rule="evenodd" d="M105.667 34.0016V39.5618H104.559V25.4141H105.667V27.0247C106.388 25.984 107.706 25.158 109.238 25.158C111.985 25.158 113.835 27.235 113.835 30.5229C113.835 33.7887 111.985 35.9091 109.238 35.9091C107.793 35.9097 106.497 35.1665 105.667 34.0016ZM112.648 30.5239C112.648 28.0458 111.352 26.1558 109.054 26.1558C107.627 26.1558 106.263 27.2742 105.67 28.2483V32.7768C106.263 33.7536 107.627 34.912 109.054 34.912C111.352 34.912 112.648 33.0058 112.648 30.5239Z" fill="#434343"/>
<path fill-rule="evenodd" clip-rule="evenodd" d="M115.356 35.6544V21.5073H116.463V35.6544H115.356Z" fill="#434343"/>
<path fill-rule="evenodd" clip-rule="evenodd" d="M128.891 38.647C129.127 38.7518 129.531 38.8171 129.788 38.8171C130.466 38.8171 130.938 38.5409 131.361 37.5648L132.169 35.7407L127.805 25.4146H129.041L132.784 34.3629L136.49 25.4146H137.743L132.422 37.907C131.869 39.1942 131 39.8132 129.807 39.8132C129.449 39.8132 128.977 39.7492 128.7 39.6651L128.891 38.647Z" fill="#434343"/>
<path fill-rule="evenodd" clip-rule="evenodd" d="M125.654 35.6241C125.58 35.269 125.524 34.9566 125.483 34.6946C125.449 34.434 125.43 34.1675 125.43 33.8964C125.05 34.4521 124.512 34.9146 123.825 35.2794C123.137 35.6455 122.484 35.826 121.587 35.826C120.508 35.826 119.671 35.5614 119.073 35.0245C118.477 34.4883 118.177 33.7619 118.177 32.8427C118.177 31.9249 118.611 31.1797 119.477 30.6098C120.343 30.0374 121.462 29.7534 122.846 29.7534H125.43V28.4804C125.43 27.7476 125.178 27.1719 124.679 26.7534C124.177 26.3355 123.472 26.1233 122.557 26.1233C121.722 26.1233 121.045 26.3168 120.529 26.6932C120.018 27.0774 119.761 27.5535 119.761 28.1273H118.627L118.604 28.0723C118.562 27.2993 118.918 26.6201 119.672 26.0347C120.423 25.4493 121.408 25.155 122.62 25.155C123.827 25.155 124.804 25.4448 125.541 26.0231C126.277 26.5955 126.646 27.4229 126.646 28.5044V33.5568C126.646 33.9197 126.663 34.2703 126.709 34.6118C126.756 34.954 126.831 35.2955 126.93 35.6254H125.654V35.6241ZM121.722 34.82C122.663 34.82 123.339 34.6105 124.031 34.1958C124.717 33.7831 125.184 33.2456 125.429 32.5949V30.6285H122.833C121.842 30.6285 121.021 30.8471 120.375 31.2889C119.728 31.7288 119.4 32.2611 119.4 32.8802C119.4 33.4636 119.607 33.9313 120.021 34.2851C120.434 34.6428 121 34.82 121.722 34.82Z" fill="#434343"/>
<path fill-rule="evenodd" clip-rule="evenodd" d="M36.474 9.90315C36.474 7.72912 38.0943 6.3313 40.1099 6.3313C41.4603 6.3313 42.3428 6.97296 42.8937 7.76017L41.9067 8.33004C41.533 7.81192 40.8782 7.40829 40.1099 7.40829C38.7394 7.40829 37.7205 8.44388 37.7205 9.90315C37.7205 11.3424 38.7387 12.398 40.1099 12.398C40.8165 12.398 41.4395 12.0772 41.751 11.777V10.7104H39.6738V9.64441H42.956V12.2221C42.2812 12.9782 41.3045 13.4854 40.1099 13.4854C38.0943 13.4854 36.474 12.0675 36.474 9.90315Z" fill="#4B4B4B"/>
<path fill-rule="evenodd" clip-rule="evenodd" d="M44.4644 13.3507V6.44434H49.2107V7.51098H45.6792V9.29173H49.1386V10.3584H45.6792V12.2847H49.2107V13.3507H44.4644Z" fill="#4B4B4B"/>
<path fill-rule="evenodd" clip-rule="evenodd" d="M52.5713 13.351V7.51195H50.4733V6.44531H55.8846V7.51195H53.7873V13.351H52.5713Z" fill="#4B4B4B"/>
<path fill-rule="evenodd" clip-rule="evenodd" d="M60.1098 13.3507V6.44434H61.3246V13.3507H60.1098Z" fill="#4B4B4B"/>
<path fill-rule="evenodd" clip-rule="evenodd" d="M64.7008 13.351V7.51195H62.6028V6.44531H68.0142V7.51195H65.9162V13.351H64.7008Z" fill="#4B4B4B"/>
<path fill-rule="evenodd" clip-rule="evenodd" d="M71.9376 9.9034C71.9376 7.84256 73.4022 6.33154 75.4801 6.33154C77.5462 6.33154 79.0219 7.84321 79.0219 9.9034C79.0219 11.9636 77.5462 13.4752 75.4801 13.4752C73.4016 13.4752 71.9376 11.9636 71.9376 9.9034ZM77.7752 9.90312C77.7752 8.47425 76.8713 7.40826 75.48 7.40826C74.0777 7.40826 73.1841 8.47425 73.1841 9.90312C73.1841 11.321 74.0777 12.398 75.48 12.398C76.8713 12.398 77.7752 11.321 77.7752 9.90312Z" fill="#4B4B4B"/>
<path fill-rule="evenodd" clip-rule="evenodd" d="M85.2749 13.3507L81.6604 8.41202V13.3507H80.4456V6.44434H81.6922L85.234 11.2284V6.44434H86.4494V13.3507H85.2749Z" fill="#4B4B4B"/>
<path fill-rule="evenodd" clip-rule="evenodd" d="M10.1717 40.4152C9.77229 40.3076 9.5123 39.911 9.5123 39.2973V19.0407C9.5123 18.4724 9.73244 18.0891 10.0814 17.9497L20.0359 29.2384L10.1717 40.4152ZM11.5419 39.9851L23.524 33.1941L20.6056 29.8845L11.5419 39.9851ZM23.6047 25.193L11.7896 18.4951L20.621 28.5737L23.6047 25.193ZM24.4068 25.6465L29.0353 28.2704C29.9117 28.7672 29.9197 29.5681 29.0353 30.0693L24.2897 32.759L21.1944 29.2265L24.4068 25.6465Z" fill="#5D5D5D"/>
<defs>
<linearGradient id="paint0_linear_254_1719" x1="0.341003" y1="0.530273" x2="0.341003" y2="47.5782" gradientUnits="userSpaceOnUse">
<stop stop-color="#F4F4F4"/>
<stop offset="1" stop-color="#E6E6E6"/>
</linearGradient>
</defs>
</svg>
