<svg width="40" height="44" viewBox="0 0 40 44" fill="none" xmlns="http://www.w3.org/2000/svg">
    <path fill-rule="evenodd" clip-rule="evenodd" d="M36.32 30.899a20.04 20.04 0 0 0 3.212-10.92C39.532 8.945 30.682 0 19.766 0 8.849 0 0 8.945 0 19.979c0 11.034 8.85 19.979 19.766 19.979 3.142 0 6.113-.741 8.75-2.06l2.697 5.587a.226.226 0 0 0 .323.097l8.353-5.117a.236.236 0 0 0 .086-.306L36.32 30.9zm-13.441-4.63a6.898 6.898 0 0 0 3.77-6.165c0-3.805-3.052-6.89-6.817-6.89s-6.816 3.085-6.816 6.89a6.892 6.892 0 0 0 4.236 6.38l7.363 3.735-1.736-3.95z" fill="#62C8DF"/>
</svg>
