<svg width="45" height="36" viewBox="0 0 45 36" fill="none" xmlns="http://www.w3.org/2000/svg">
    <path d="M30.8 33.879H2.2c-1.215 0-2.2-.684-2.2-1.528V12.49c0-.844.985-1.528 2.2-1.528h28.6c1.215 0 2.2.684 2.2 1.528V32.35c0 .844-.985 1.528-2.2 1.528z" fill="#62C8DF"/>
    <ellipse cx="8.5" cy="5.48" rx="5.5" ry="5.48" fill="#62C8DF"/>
    <ellipse cx="21.5" cy="5.48" rx="5.5" ry="5.48" fill="#62C8DF"/>
    <path d="M45 34.526s-.183 1.345-1.467 1.345c-1.283 0-9.533-7.528-9.533-8.519v-9.865c0-.99 8.067-8.52 9.533-8.52C45 8.968 45 10.314 45 10.314v24.213z" fill="#62C8DF"/>
</svg>
